<svg class="logo" version="1.1" id="Layer_1" xmlns="http://www.w3.org/2000/svg" viewBox="0 0 100 100" fill="#a70202"><path d="M39.213,75.547v0.015h14.546c20.076,0,32.716-12.534,32.716-32.607c0-20.078-12.829-31.865-32.904-31.865H13.527l0,0
 v10.908l0,0L51.8,22.021c13.635,0,22.992,7.298,22.992,20.933c0,13.632-9.357,20.928-22.992,20.928l-12.587-0.021v0.015V75.547z"></path><path d="M59.198,37.691H26.083c-6.787,0-12.309,5.522-12.309,12.309v38.909l0,0v0.002h11.19v-0.002l0,0V55.98
 c-0.017-5.594,1.475-7.13,7.163-7.1h27.071V37.691z"></path></svg>